<?xml version="1.0" encoding="utf-8"?>
<!-- Generator: Adobe Illustrator 16.0.0, SVG Export Plug-In . SVG Version: 6.00 Build 0)  -->
<!DOCTYPE svg PUBLIC "-//W3C//DTD SVG 1.1//EN" "http://www.w3.org/Graphics/SVG/1.1/DTD/svg11.dtd">
<svg version="1.1" id="Layer_1" xmlns="http://www.w3.org/2000/svg" xmlns:xlink="http://www.w3.org/1999/xlink" x="0px" y="0px"
	 width="521.868px" height="124.803px" viewBox="80.298 36.892 521.868 124.803"
	 enable-background="new 80.298 36.892 521.868 124.803" xml:space="preserve">
<g enable-background="new    ">
	<g>
		<path fill="#5B2C29" d="M232.096,119.579l4.666-6.435c3.183,3.465,8.344,6.576,14.92,6.576c6.789,0,9.404-3.323,9.404-6.506
			c0-9.899-27.435-3.747-27.435-21.071c0-7.849,6.788-13.858,17.183-13.858c7.283,0,13.293,2.403,17.605,6.646l-4.666,6.151
			c-3.748-3.747-8.768-5.444-13.718-5.444c-4.808,0-7.919,2.404-7.919,5.869c0,8.838,27.435,3.394,27.435,20.93
			c0,7.849-5.586,14.637-18.243,14.637C242.631,127.074,236.338,123.963,232.096,119.579z"/>
		<path fill="#5B2C29" d="M297.854,126.226v-3.748c-2.546,2.971-6.576,4.597-11.102,4.597c-5.516,0-11.809-3.818-11.809-11.313
			c0-7.92,6.223-11.172,11.809-11.172c4.666,0,8.556,1.484,11.102,4.384v-5.091c0-3.96-3.324-6.364-7.99-6.364
			c-3.818,0-7.213,1.414-10.111,4.384l-3.111-5.161c3.959-3.818,8.908-5.516,14.354-5.516c7.637,0,14.283,3.182,14.283,12.304
			v22.697H297.854z M297.854,118.447v-5.232c-1.769-2.333-4.95-3.535-8.133-3.535c-4.172,0-7.354,2.475-7.354,6.151
			c0,3.748,3.182,6.152,7.354,6.152C292.903,121.983,296.085,120.781,297.854,118.447z"/>
		<path fill="#5B2C29" d="M335.821,126.226v-3.748c-2.546,2.971-6.576,4.597-11.102,4.597c-5.515,0-11.809-3.818-11.809-11.313
			c0-7.92,6.223-11.172,11.809-11.172c4.667,0,8.556,1.484,11.102,4.384v-5.091c0-3.96-3.323-6.364-7.99-6.364
			c-3.818,0-7.212,1.414-10.111,4.384l-3.111-5.161c3.96-3.818,8.909-5.516,14.354-5.516c7.637,0,14.283,3.182,14.283,12.304v22.697
			H335.821z M335.821,118.447v-5.232c-1.769-2.333-4.95-3.535-8.132-3.535c-4.172,0-7.354,2.475-7.354,6.151
			c0,3.748,3.182,6.152,7.354,6.152C330.871,121.983,334.053,120.781,335.821,118.447z"/>
		<path fill="#5B2C29" d="M350.031,119.579l4.666-6.435c3.183,3.465,8.344,6.576,14.92,6.576c6.789,0,9.404-3.323,9.404-6.506
			c0-9.899-27.435-3.747-27.435-21.071c0-7.849,6.788-13.858,17.183-13.858c7.283,0,13.293,2.403,17.605,6.646l-4.666,6.151
			c-3.748-3.747-8.768-5.444-13.718-5.444c-4.808,0-7.919,2.404-7.919,5.869c0,8.838,27.435,3.394,27.435,20.93
			c0,7.849-5.586,14.637-18.243,14.637C360.566,127.074,354.273,123.963,350.031,119.579z"/>
		<path fill="#5B2C29" d="M392.666,109.114c0-11.243,6.293-17.89,15.133-17.89c4.454,0,8.414,2.121,10.959,5.516v-4.667h7.425
			v47.163h-7.425v-17.748c-2.828,3.606-6.646,5.586-10.959,5.586C398.959,127.074,392.666,120.356,392.666,109.114z
			 M418.758,115.831v-13.505c-1.697-2.546-5.303-4.525-8.768-4.525c-5.869,0-9.688,4.667-9.688,11.313s3.818,11.384,9.688,11.384
			C413.455,120.498,417.132,118.377,418.758,115.831z"/>
		<path fill="#5B2C29" d="M458.848,126.226V121.7c-2.403,2.687-6.646,5.374-12.02,5.374c-7.354,0-11.031-3.889-11.031-10.818V92.073
			h7.425v21.425c0,5.303,2.687,7,6.929,7c3.748,0,7.001-2.192,8.697-4.454V92.073h7.425v34.152H458.848z"/>
		<path fill="#5B2C29" d="M496.816,126.226v-3.748c-2.546,2.971-6.576,4.597-11.102,4.597c-5.516,0-11.809-3.818-11.809-11.313
			c0-7.92,6.223-11.172,11.809-11.172c4.667,0,8.556,1.484,11.102,4.384v-5.091c0-3.96-3.323-6.364-7.99-6.364
			c-3.818,0-7.213,1.414-10.111,4.384l-3.111-5.161c3.96-3.818,8.909-5.516,14.354-5.516c7.637,0,14.283,3.182,14.283,12.304v22.697
			H496.816z M496.816,118.447v-5.232c-1.768-2.333-4.949-3.535-8.132-3.535c-4.172,0-7.354,2.475-7.354,6.151
			c0,3.748,3.182,6.152,7.354,6.152C491.867,121.983,495.049,120.781,496.816,118.447z"/>
		<path fill="#5B2C29" d="M515.41,118.235V98.508h-5.656v-6.435h5.656v-9.334h7.424v9.334h6.93v6.435h-6.93v17.89
			c0,2.333,1.132,4.101,3.254,4.101c1.414,0,2.687-0.637,3.252-1.272l1.768,5.656c-1.344,1.202-3.535,2.192-6.93,2.192
			C518.38,127.074,515.41,123.963,515.41,118.235z"/>
		<path fill="#5B2C29" d="M534.358,109.114c0-10.324,7.282-17.89,17.606-17.89c6.717,0,10.678,2.828,13.081,6.081l-4.879,4.454
			c-1.909-2.687-4.525-3.959-7.849-3.959c-6.152,0-10.324,4.667-10.324,11.313s4.172,11.384,10.324,11.384
			c3.323,0,5.939-1.414,7.849-4.101l4.879,4.596c-2.403,3.182-6.364,6.081-13.081,6.081
			C541.641,127.074,534.358,119.438,534.358,109.114z"/>
		<path fill="#5B2C29" d="M594.742,126.226v-21.496c0-5.373-2.688-6.929-6.859-6.929c-3.818,0-7.07,2.263-8.768,4.525v23.899h-7.425
			V79.062h7.425v17.606c2.262-2.687,6.646-5.444,12.021-5.444c7.354,0,11.03,3.818,11.03,10.818v24.183H594.742z"/>
	</g>
</g>
<g>
	<path fill="#2C1E1F" d="M199.921,89.191l-0.683-0.488l-0.78-0.585l-0.781-0.685l-0.878-0.583l-0.78-0.684l-0.878-0.683l-0.877-0.78
		l-0.879-0.684l-0.878-0.781l-0.877-0.684l-0.779-0.779l-0.879-0.781l-0.878-0.877l-0.781-0.781l-0.878-0.779l-0.78-0.782
		l-0.781-0.879l-0.683-0.78l-0.684-0.779l-0.682-0.782l-0.585-0.877l-0.683-0.976l-0.782-0.976l-0.781-1.171l-0.878-1.17
		l-0.878-1.268l-0.976-1.366l-0.974-1.368l-0.977-1.463l-0.977-1.463l-1.072-1.462l-1.171-1.466l-1.072-1.56l-1.171-1.465
		l-1.17-1.561l-1.172-1.462l-1.17-1.563l-1.27-1.366l-1.268-1.464l-1.268-1.366l-1.269-1.365l-1.268-1.27l-1.269-1.169l-1.365-1.172
		l-1.27-1.072l-1.365-0.977l-1.366-0.877l-1.367-0.783l-1.365-0.584l-1.366-0.584l-1.367-0.391l-1.365-0.195l-1.367-0.097
		l-1.171-0.099l-1.268-0.096l-1.268-0.099h-1.271h-1.365l-1.269,0.099l-1.267,0.096l-1.27,0.196l-1.365,0.195l-1.269,0.293
		l-1.27,0.292l-1.366,0.487l-1.268,0.39l-1.268,0.587l-1.27,0.585l-1.268,0.781l-1.269,0.78l-1.269,0.878l-1.268,0.974l-1.171,1.075
		l-1.268,1.17l-1.171,1.268l-1.171,1.366l-1.17,1.466l-1.074,1.56l-1.17,1.66l-1.075,1.853l-1.071,1.854l-1.074,2.048l-1.073,2.245
		l-1.073,2.245l-0.978,2.245l-0.974,2.244l-0.976,2.049l-1.074,2.049l-0.975,1.95l-0.978,1.953l-1.072,1.854l-0.977,1.756
		l-0.974,1.658l-0.977,1.66l-0.977,1.659l-0.974,1.561l-0.977,1.462L94.441,88.9l-0.878,1.366l-0.975,1.366l-0.878,1.27
		l-0.877,1.266l-0.78,1.27l-0.879,1.171l-0.779,1.171l-0.683,1.169l-0.78,1.074l-0.684,1.075l-0.683,1.071l-0.585,0.978
		l-0.585,1.073l-0.587,0.976l-0.487,0.975l-0.487,0.979l-0.391,0.976l-0.291,0.976l-0.294,0.973l-0.292,0.881l-0.293,0.877
		l-0.194,0.783l-0.196,0.879l-0.097,0.779l-0.195,0.78l-0.098,0.683l-0.098,0.686v0.684l-0.097,0.681v0.684v0.584v0.586v0.486v0.586
		l0.097,0.487v0.394l0.098,0.486l0.098,0.391v0.394l0.098,0.291l0.097,0.391l0.097,0.293v0.193l0.097,0.293l0.099,0.197v0.098
		l0.097,0.195v0.096L81.273,125l0.879,1.953l4.488-3.025v0.389l0.193,0.49l0.1,0.486l0.194,0.49l0.098,0.584l0.195,0.488
		l0.097,0.582l0.195,0.588l0.195,0.584l0.196,0.588l0.193,0.586c1.66,4.682,4.393,7.707,6.93,11.709l0.878-2.051l0.194-0.392
		l3.025-2.731v0.192l0.196,0.687l0.193,0.586l0.293,0.684l0.292,0.684l0.293,0.683l0.391,0.586l0.39,0.681l0.586,0.782l0.781,1.17
		l0.195,0.296l0.196,0.192v0.099h0.096l1.756,2.243l2.636-5.271l0.195,0.197l0.292,0.289l0.293,0.396l0.389,0.291l0.292,0.389
		l0.391,0.394l0.489,0.389l0.39,0.488l0.488,0.391l0.488,0.49l0.585,0.486l0.487,0.586l0.587,0.485l0.683,0.586l0.585,0.584
		l0.683,0.683l0.779,0.588l0.684,0.682l0.878,0.686l0.878,0.779l0.976,0.685l1.074,0.684l1.073,0.779l1.17,0.682l1.171,0.685
		l1.268,0.684l1.269,0.586l1.367,0.684l1.366,0.586l1.464,0.586l1.562,0.584l1.463,0.488l1.562,0.586l1.657,0.486l1.659,0.389
		l1.66,0.394l1.756,0.389l1.658,0.394l1.854,0.193l1.756,0.293l1.854,0.194l1.853,0.099l1.854,0.1h1.854h1.853l1.953-0.1
		l1.951-0.195l1.952-0.193l1.951-0.293l1.952-0.391l1.074-0.197l1.171-0.389l1.268-0.295l1.269-0.484l1.365-0.49l1.368-0.486
		l1.464-0.686l1.365-0.584l1.462-0.779l1.464-0.781l1.562-0.879l1.464-0.877l1.464-0.977l1.463-0.977l1.464-1.17l1.364-1.172
		l1.368-1.173l1.365-1.268l1.269-1.363l1.267-1.467l1.271-1.461l1.071-1.564l1.075-1.657l0.976-1.658l0.876-1.756l0.782-1.855
		l0.682-1.85l0.586-1.953l0.391-2.049l0.391-2.148l0.195-1.756l0.195,0.098l0.487,0.297l0.391,0.191l0.39,0.193l0.292,0.196
		l0.293,0.293l0.292,0.197l0.196,0.19l0.39,0.49l0.39,0.392l0.294,0.389l0.193,0.192l0.197,0.199l0.097,0.097l0.097,0.098
		l3.414,3.609l-0.389-4.976v-0.098v-0.098v-0.099v-0.196l-0.098-0.191v-0.295v-0.291v-0.295l-0.097-0.291v-0.393v-0.39l-0.098-0.389
		v-0.396l-0.097-0.486v-0.389l-0.099-0.488v-0.489l-0.096-0.488l-0.099-0.485l-0.097-0.488v-0.387l-0.097-0.492l-0.098-0.488
		l-0.099-0.486l-0.097-0.488l-0.097-0.485l-0.194-0.39l-0.099-0.491l-0.097-0.39l-0.195-0.389l-0.099-0.393l-0.292-0.68
		l-0.195-0.685l-0.292-0.588l-0.293-0.683l-0.194-0.586l-0.197-0.684l-0.098-0.195l4.88,1.365l-1.268-3.314v-0.098l-0.098-0.1
		v-0.098l-0.098-0.197l-0.097-0.191l-0.098-0.197l-0.097-0.291l-0.099-0.293l-0.096-0.293l-0.196-0.295l-0.097-0.289l-0.197-0.393
		l-0.194-0.391l-0.194-0.39l-0.196-0.391l-0.195-0.392l-0.195-0.389l-0.195-0.488l-0.292-0.391l-0.195-0.488l-0.293-0.391
		l-0.292-0.488l-0.196-0.391l-0.291-0.486l-0.294-0.389l-0.291-0.393l-0.391-0.486l-0.292-0.393l-0.293-0.391l-0.39-0.39
		l-0.292-0.292l-0.585-0.583l-0.585-0.588l-0.488-0.487l-0.39-0.488L209,95.63l-4.294-2.927l-0.097-0.097l-0.194-0.096l-0.196-0.195
		l-0.391-0.293l-0.39-0.293l-0.487-0.291l-0.488-0.392l-0.586-0.392l-0.585-0.389l-0.684-0.489L199.921,89.191z"/>
	<path fill="#884D31" d="M199.824,121.781c0,0,4.195,1.365,5.56,2.93c1.367,1.656,1.66,1.85,1.66,1.85s-0.488-7.61-1.854-11.123
		c-1.368-3.416-2.83-7.315-2.83-7.315l4.878,1.364c0,0-2.538-6.731-5.756-9.952c-3.222-3.317-4.684-4.878-4.684-4.878l7.024-0.489
		c0,0-14.439-9.756-21.368-18.539c-6.926-8.78-22.247-35.222-35.223-36.589c-12.978-1.364-26.637,0.197-37.272,24.979
		c-10.635,24.784-22.93,36.2-26.151,45.664c-3.218,9.467-0.974,14.637-0.974,14.637L87.713,121c0,0,2.146,9.756,4.683,13.465
		c2.538,3.705,2.538,3.514,2.538,3.514l5.562-5.073c0,0,0.488,4.586,2.342,7.12c1.756,2.539,1.756,2.539,1.756,2.539l2.635-5.073
		c0,0,2.243,3.024,10.343,10.146c8.196,7.223,27.808,15.32,48.005,11.125C176.601,156.518,199.921,144.611,199.824,121.781z"/>
	<path fill="#B86740" d="M202.361,122.758c1.171,0.486,2.439,1.266,3.023,1.953c1.367,1.656,1.66,1.85,1.66,1.85
		s-0.488-7.61-1.854-11.123c-1.368-3.416-2.83-7.315-2.83-7.315l4.878,1.364c0,0-2.538-6.731-5.756-9.952
		c-3.222-3.317-4.684-4.878-4.684-4.878l7.024-0.489c0,0-14.439-9.756-21.368-18.539c-6.926-8.78-22.247-35.222-35.223-36.589
		c-2.048-0.195-4.097-0.39-6.146-0.39c5.755,2.537,16.099,7.709,19.22,13.954c4.489,8.586,4.197,12.489,4.197,12.489l2.83-4.198
		c0,0,1.853,9.466,5.561,14.444c3.612,4.975,10.93,7.512,10.93,7.512l-1.758-4.391l10.929,11.516l-1.854,1.853
		c0,0,6.049,3.123,8.685,8.586c2.634,5.465,2.634,5.465,2.634,5.465l-4-1.27c0,0,4.196,9.172,4,16.197L202.361,122.758z"/>
	<path fill="#79432D" d="M149.574,39.527c-0.781-0.195-1.562-0.39-2.342-0.49c-12.978-1.364-26.637,0.197-37.272,24.979
		c-10.635,24.784-22.93,36.2-26.151,45.664c-3.218,9.467-0.974,14.637-0.974,14.637L87.713,121c0,0,2.146,9.756,4.683,13.465
		c2.538,3.705,2.538,3.514,2.538,3.514l5.562-5.073c0,0,0.488,4.586,2.342,7.12c1.756,2.539,1.756,2.539,1.756,2.539l2.635-5.073
		c0,0,2.243,3.024,10.343,10.146c8.196,7.223,27.808,15.32,48.005,11.125c0.684-0.1,1.366-0.297,2.146-0.488
		c-22.928-0.389-40.103-3.317-57.664-27.811l-1.562,3.609c0,0,0,0.295-2.731-3.9c-2.634-4.197-3.904-13.855-3.904-13.855
		l-3.61,6.054c0,0-0.878-8.783-0.293-16.006c0.586-7.221,8.196-16.879,8.196-16.879l-7.318,4.878c0,0,4.879-5.756,10.245-13.855
		c5.466-8.196,9.369-24.686,17.467-35.225C132.012,38.161,142.938,38.55,149.574,39.527z"/>
	<path fill="#DE9A67" d="M163.332,73.287c0,0-2.538,8.001-11.514,11.318c-8.879,3.319-9.465,3.123-13.464,5.076
		c-4,2.047-5.953,4.778-5.953,4.778s1.269-4.975,2.342-8.782c1.074-3.804,2.927-7.803,2.927-7.803s-4.585,2.73-7.707,6.926
		c-3.026,4.196-4.49,7.318-4.49,7.318s-1.169-2.634-1.659-4.585c-0.584-2.049,0.391-4.001,0.391-4.001s-11.514,9.465-6.83,28.394
		c4.782,18.93,21.562,38.441,40.688,38.639c19.125,0.193,33.857-14.928,34.834-30.053c0.878-15.121-5.465-25.661-8.001-29.173
		c-2.634-3.415-3.903-4.588-3.903-4.588l0.781,3.318c0,0-7.122-2.732-12.001-7.514C164.795,77.874,163.332,73.287,163.332,73.287z"
		/>
	<path fill="#E7BE9C" d="M183.823,139.832c5.268-5.465,8.585-12.395,9.074-19.32c0.585-9.465-1.757-17.074-4.099-22.343
		c2.438,6.925,4.391,17.076,0.976,28.589C188.212,132.027,186.165,136.318,183.823,139.832z"/>
	<path fill="#D08D5D" d="M163.332,73.287c0,0-0.39,1.268-1.365,2.927c1.658,2.244,4.585,5.952,7.512,8.685
		c4.489,4,11.123,5.755,11.123,5.755l-0.585-1.365c-2.439-1.071-6.927-3.415-10.245-6.733
		C164.795,77.874,163.332,73.287,163.332,73.287L163.332,73.287z M135.132,95.925v-4.197c0.879-0.683,1.952-1.366,3.222-2.047
		c2.536-1.269,3.707-1.662,6.537-2.635c-0.975,0.682-2.147,1.56-3.316,2.536C138.744,91.826,136.596,94.166,135.132,95.925
		L135.132,95.925z M135.132,82.068v-2.439c1.464-1.171,2.538-1.755,2.538-1.755s-0.682,1.462-1.464,3.512
		C135.913,81.58,135.524,81.776,135.132,82.068z M135.132,79.629v2.439c-1.463,1.171-3.413,3.025-4.975,5.659
		c-2.926,5.173-4.684,9.857-4.684,9.857s-0.097-3.026-0.195-5.954l0.195,0.488c0,0,1.464-3.122,4.49-7.318
		C131.62,82.654,133.571,80.8,135.132,79.629L135.132,79.629z M135.132,91.728c-0.193,0.195-0.291,0.293-0.486,0.39
		c-0.878,3.222-2.049,7.317-2.049,7.317s0.878-1.461,2.535-3.51V91.728L135.132,91.728z M116.301,105.094v-3.998
		c0.781-11.71,7.904-17.563,7.904-17.563s-0.487,0.976-0.586,2.245c-1.269,1.657-3.414,4.977-4.585,11.22
		c-1.074,5.367-0.392,14.341,0.39,21.078c-0.878-2.054-1.464-4.101-2.049-6.148C116.789,109.486,116.497,107.24,116.301,105.094z"/>
	<path fill="#5C2D29" d="M172.893,118.463c0,0-0.781,12.098-0.097,15.029c0.78,2.826,2.049,4.291,2.049,4.291
		s-2.732,3.123-8.196,4.098c-5.465,0.877-16.1,0.291-22.635-4.783c-5.855-4.584-10.832-13.561-12.492-20.977
		c0,0,8.977,3.904,19.906,3.904C162.355,120.025,172.893,118.463,172.893,118.463z"/>
	<path fill="#FFFFFF" d="M175.041,111.047l-1.952,8.783c-9.562,6.342-26.832,5.463-41.663-3.514l-1.755-10.246
		c0,0,14.73,8.588,28.392,8.102C171.724,113.586,175.041,111.047,175.041,111.047z"/>
	<path fill="#983532" d="M165.186,141.979c-5.758,0.685-15.125-0.194-21.172-4.881c-0.878-0.684-1.758-1.461-2.539-2.34
		c0.586-1.854,1.366-3.416,2.732-3.709c3.319-0.488,7.318,4.783,7.318,4.783s-0.194-2.537,4-2.537
		C158.843,133.295,163.429,139.441,165.186,141.979z"/>
	<g>
		<g>
			<path fill="#8E4B34" d="M178.845,94.266c0,0-4-4.197-7.318-3.32c-3.22,0.977-5.269,5.172-5.269,5.172s0.39-6.049,4.001-6.634
				C173.967,88.997,178.845,94.266,178.845,94.266z"/>
			<path fill="#8E4B34" d="M155.136,96.314c0,0-3.123-4.391-8.196-3.122c-5.075,1.267-6.929,5.073-6.929,5.073
				s0.585-6.341,5.659-7.611C150.746,89.386,155.136,96.314,155.136,96.314z"/>
		</g>
		<path fill="#8E4B34" d="M168.405,100.51c0,0-2.342,2.732-3.999,2.732c-1.562,0-4.489-0.586-4.489-0.586s2.34,2.145,5.072,1.66
			C167.722,103.729,168.405,100.51,168.405,100.51z"/>
	</g>
</g>
</svg>
